<?xml version="1.0" standalone="no"?>
<!DOCTYPE svg PUBLIC "-//W3C//DTD SVG 20010904//EN"
 "http://www.w3.org/TR/2001/REC-SVG-20010904/DTD/svg10.dtd">
<svg version="1.0" xmlns="http://www.w3.org/2000/svg"
 width="2184.000000pt" height="1432.000000pt" viewBox="0 0 2184.000000 1432.000000"
 preserveAspectRatio="xMidYMid meet">

<g transform="translate(0.000000,1432.000000) scale(0.100000,-0.100000)"
fill="#000000" stroke="none">
<path d="M16023 13898 c-13 -6 -25 -18 -27 -27 -3 -9 -34 -162 -70 -341 -84
-423 -121 -589 -216 -965 -197 -780 -427 -1525 -655 -2119 -65 -170 -241 -593
-251 -605 -2 -2 -21 8 -42 21 -64 43 -154 85 -211 98 -155 37 -393 -33 -527
-154 -177 -160 -333 -520 -405 -936 -20 -112 -17 -379 5 -458 37 -136 113
-249 200 -295 34 -18 57 -22 136 -22 80 0 105 5 157 27 128 54 250 153 344
280 106 143 331 525 470 800 59 115 61 118 94 118 62 0 78 39 50 119 l-14 41
78 173 c43 94 102 232 132 305 29 73 55 129 57 124 3 -9 -106 -661 -184 -1107
-25 -143 -68 -384 -94 -535 -170 -962 -202 -1267 -154 -1440 30 -106 148 -190
266 -190 88 0 109 50 52 126 -19 24 -28 54 -35 106 -32 243 93 1124 362 2553
94 502 327 1695 353 1815 18 80 282 1414 331 1675 20 105 56 293 81 418 50
257 50 253 -23 317 -73 65 -208 105 -260 78z m-1368 -4272 c28 -22 34 -32 30
-49 -13 -45 -197 -408 -285 -562 -110 -191 -212 -349 -325 -500 -104 -139
-112 -146 -121 -109 -13 49 4 267 30 396 52 254 158 516 267 662 130 171 301
240 404 162z"/>
<path d="M7630 13270 c11 -8 8 -9 -12 -4 -31 7 -71 -3 -63 -17 3 -5 -1 -6 -9
-3 -18 7 -59 -14 -51 -26 3 -6 0 -7 -7 -5 -7 3 -29 -9 -48 -26 -19 -17 -26
-25 -15 -18 18 13 19 13 6 -3 -7 -10 -17 -16 -21 -13 -11 7 -41 -30 -33 -40 5
-4 3 -5 -3 -2 -14 8 -37 -17 -26 -28 4 -5 2 -5 -5 -1 -14 8 -45 -33 -36 -47 3
-6 1 -7 -5 -4 -32 20 -243 -412 -372 -763 -150 -410 -293 -983 -369 -1480
-103 -683 -65 -1233 121 -1750 45 -125 147 -332 160 -324 7 4 8 2 4 -4 -9 -14
47 -105 59 -95 4 5 5 2 1 -5 -9 -15 69 -122 163 -224 72 -78 71 -76 19 -202
-16 -39 -72 -196 -124 -349 -179 -528 -289 -802 -449 -1116 -105 -207 -214
-391 -298 -501 -40 -52 -71 -98 -69 -102 1 -4 -2 -7 -7 -6 -12 4 -130 -110
-122 -117 3 -4 1 -5 -4 -4 -17 5 -56 -21 -49 -33 4 -7 3 -8 -4 -4 -16 10 -54
-12 -46 -26 4 -6 3 -8 -4 -4 -14 9 -63 -14 -55 -27 3 -6 1 -7 -4 -4 -6 4 -48
-3 -94 -14 -94 -24 -175 -22 -249 6 -25 9 -53 17 -62 18 -9 1 -15 3 -12 6 7 8
-49 40 -59 34 -6 -3 -7 -2 -4 3 3 5 -13 27 -35 49 -22 22 -53 58 -68 80 -30
44 -94 167 -105 203 -3 12 -11 19 -17 16 -7 -4 -8 -2 -4 5 4 6 -4 46 -18 89
-81 252 -118 542 -110 888 3 165 23 458 39 573 19 139 87 716 101 851 9 92 17
271 17 405 2 225 1 242 -19 279 -11 22 -26 42 -34 44 -8 3 -10 0 -5 -8 5 -9 4
-11 -4 -6 -6 4 -9 11 -6 16 8 14 -40 23 -79 16 -39 -7 -119 -62 -111 -76 3 -5
0 -12 -6 -16 -8 -4 -9 -3 -5 4 4 7 5 12 2 12 -12 0 -125 -144 -119 -153 3 -6
1 -7 -5 -3 -16 10 -179 -241 -343 -529 -146 -257 -271 -455 -352 -559 -26 -32
-44 -62 -42 -66 3 -4 -3 -14 -13 -21 -16 -13 -16 -12 -3 6 8 11 -9 -5 -36 -35
-28 -30 -48 -59 -45 -64 3 -5 1 -6 -5 -3 -13 8 -66 -47 -56 -58 5 -4 2 -5 -5
-1 -11 7 -66 -27 -57 -35 2 -2 -28 -4 -66 -4 -38 1 -70 5 -70 11 -1 5 -16 26
-35 46 -49 55 -95 220 -124 453 -24 186 -10 645 29 965 9 70 14 121 41 414 15
168 13 573 -5 707 -30 230 -90 414 -179 547 -49 74 -131 157 -146 147 -5 -3
-12 0 -16 6 -5 8 -2 10 7 5 8 -4 3 2 -11 13 -14 11 -31 19 -37 16 -7 -2 -12 1
-10 8 1 7 -6 11 -15 11 -10 -1 -15 3 -11 9 4 6 0 8 -11 4 -11 -5 -15 -3 -10 5
5 8 2 9 -10 5 -9 -4 -15 -3 -12 2 8 12 -81 44 -100 37 -8 -3 -13 -2 -9 3 17
29 -270 51 -391 31 -42 -7 -71 -16 -65 -19 5 -4 -7 -7 -27 -7 -43 0 -195 -61
-186 -75 3 -5 -3 -6 -12 -2 -13 5 -15 3 -9 -7 5 -9 4 -11 -3 -6 -14 8 -75 -22
-67 -33 2 -5 -3 -8 -13 -7 -9 0 -16 -4 -15 -10 1 -7 -5 -11 -15 -10 -9 0 -16
-4 -15 -10 1 -7 -5 -11 -15 -10 -9 0 -16 -5 -14 -12 1 -8 -2 -11 -7 -7 -27 16
-233 -198 -347 -361 -73 -104 -185 -332 -228 -464 -63 -196 -107 -472 -86
-549 21 -80 99 -113 167 -71 53 32 71 83 88 237 39 376 187 689 437 929 166
160 345 253 553 290 44 8 103 14 132 14 80 0 200 -27 272 -60 182 -86 266
-232 296 -520 28 -262 18 -523 -46 -1210 -38 -407 -45 -839 -16 -1040 32 -232
84 -433 133 -518 84 -144 291 -140 470 10 197 165 320 334 564 774 67 120 143
253 168 294 59 96 170 251 191 267 29 22 78 16 101 -14 18 -24 20 -36 15 -93
-12 -129 -27 -248 -56 -455 -29 -199 -38 -259 -60 -400 -63 -413 -89 -678 -89
-926 0 -339 49 -642 144 -888 118 -307 310 -530 523 -611 264 -100 512 -34
760 204 132 126 313 362 297 388 -4 6 -3 8 4 4 12 -7 139 207 235 400 173 345
394 919 512 1327 16 53 32 90 42 94 8 3 48 -1 87 -11 176 -41 449 -40 644 3
161 35 340 118 495 228 96 69 297 265 387 378 35 44 66 84 70 88 4 4 14 -28
23 -73 26 -133 67 -207 166 -303 171 -163 330 -209 515 -148 115 38 291 169
398 297 179 215 366 575 403 777 4 20 8 37 9 37 0 0 17 -5 36 -10 67 -21 195
-40 261 -40 129 0 308 41 468 106 46 19 85 33 88 30 2 -2 -48 -266 -112 -586
-64 -320 -114 -593 -111 -605 7 -29 78 -100 133 -132 59 -34 161 -44 184 -17
9 11 74 123 144 249 349 626 664 1134 888 1432 58 76 120 153 139 170 l33 33
-3 -43 c-2 -23 -21 -159 -43 -302 -78 -521 -94 -707 -85 -955 12 -323 80 -496
224 -567 51 -25 67 -28 162 -28 105 0 105 0 200 47 52 26 118 67 146 92 91 80
244 330 244 398 0 46 -34 78 -82 78 -42 0 -73 -31 -115 -114 -60 -119 -165
-224 -273 -274 -43 -20 -71 -26 -132 -26 -92 -1 -120 15 -158 90 -23 44 -25
60 -23 164 2 159 19 247 134 695 143 552 149 580 149 711 0 155 -23 228 -93
299 -81 81 -216 114 -328 81 -159 -47 -419 -345 -766 -880 -57 -87 -103 -153
-103 -145 0 8 19 107 41 221 23 113 39 217 36 230 -25 97 -237 203 -311 155
-19 -13 -27 -31 -36 -86 l-13 -69 -113 -56 c-220 -107 -388 -140 -607 -118
-162 16 -170 19 -162 49 3 13 6 88 6 166 0 381 -146 685 -388 804 -65 32 -89
39 -153 41 -131 6 -192 -43 -227 -182 -14 -60 -15 -83 -5 -173 26 -237 145
-473 334 -666 48 -50 88 -97 88 -104 0 -27 -84 -242 -131 -333 -58 -114 -152
-262 -223 -349 -80 -100 -219 -216 -315 -264 -76 -38 -92 -42 -157 -42 -47 0
-78 5 -86 13 -20 20 -16 209 6 312 42 195 148 459 256 635 83 136 178 246 294
342 45 37 30 115 -40 200 -40 48 -126 103 -163 103 -13 0 -49 -19 -78 -42
-146 -112 -309 -343 -422 -598 -44 -100 -203 -365 -327 -546 -45 -67 -82 -123
-81 -125 1 -2 0 -3 -2 -2 -8 5 -60 -70 -55 -78 3 -5 0 -8 -8 -7 -7 2 -12 -3
-10 -10 1 -8 -2 -11 -7 -8 -9 6 -47 -44 -43 -57 1 -5 -1 -6 -6 -3 -13 8 -104
-88 -95 -100 5 -5 4 -6 -1 -2 -11 10 -38 -11 -30 -23 3 -5 0 -8 -8 -7 -7 2
-12 -3 -10 -10 1 -8 -1 -11 -6 -8 -11 7 -47 -19 -47 -33 0 -6 -4 -11 -10 -12
-20 -2 -45 -20 -42 -31 1 -7 -7 -12 -18 -13 -11 0 -19 -5 -18 -11 1 -7 -5 -11
-15 -10 -9 0 -16 -4 -15 -10 1 -7 -5 -11 -15 -10 -9 0 -16 -5 -14 -12 1 -8 -2
-11 -7 -7 -14 8 -73 -24 -66 -35 4 -6 -1 -7 -11 -3 -13 5 -15 3 -9 -7 5 -8 4
-11 -3 -7 -14 9 -43 -3 -36 -14 3 -5 -1 -6 -8 -4 -16 6 -131 -39 -122 -47 3
-4 -5 -4 -18 -1 -15 3 -19 2 -11 -4 8 -6 0 -9 -25 -9 -20 0 -66 -5 -102 -12
-83 -15 -217 -15 -300 0 -36 6 -79 12 -97 12 -17 1 -29 4 -27 7 2 3 -8 11 -21
17 -32 15 -32 26 9 130 19 48 64 188 101 312 64 216 114 382 267 885 253 834
354 1293 409 1860 16 163 16 651 1 800 -42 399 -73 544 -152 710 -46 98 -123
201 -141 189 -5 -3 -8 0 -7 8 2 7 -5 12 -14 12 -10 -1 -16 3 -15 10 1 6 -6 10
-15 10 -10 -1 -15 3 -11 9 4 6 0 8 -11 4 -11 -5 -15 -3 -10 5 5 8 2 9 -10 5
-10 -4 -15 -3 -11 3 9 14 -63 30 -140 30 -51 0 -66 -3 -55 -10z m229 -307 c14
-11 41 -41 58 -67 137 -202 173 -839 83 -1480 -12 -82 -19 -155 -16 -163 3 -8
2 -12 -2 -9 -5 3 -16 -39 -26 -92 -59 -315 -199 -847 -320 -1213 -27 -81 -164
-512 -216 -679 -81 -257 -132 -441 -126 -457 3 -8 2 -12 -3 -9 -5 3 -12 -6
-16 -22 -27 -112 -69 -223 -87 -233 -37 -20 -61 -3 -116 85 -146 231 -258 587
-314 996 -20 148 -17 660 5 830 26 200 53 357 96 567 194 932 364 1388 669
1786 80 104 132 152 190 174 46 16 107 10 141 -14z m198 -1165 c-3 -8 -6 -5
-6 6 -1 11 2 17 5 13 3 -3 4 -12 1 -19z m-5420 -524 c-3 -3 -12 -4 -19 -1 -8
3 -5 6 6 6 11 1 17 -2 13 -5z m7620 -929 c35 -100 56 -419 34 -519 l-6 -30
-38 40 c-51 53 -114 185 -134 281 -27 133 5 249 73 264 47 11 56 6 71 -36z
m-5184 -912 c-7 -2 -21 -2 -30 0 -10 3 -4 5 12 5 17 0 24 -2 18 -5z m3984
-245 c-3 -8 -6 -5 -6 6 -1 11 2 17 5 13 3 -3 4 -12 1 -19z m-10 -70 c-3 -8 -6
-5 -6 6 -1 11 2 17 5 13 3 -3 4 -12 1 -19z m-10 -60 c-3 -7 -5 -2 -5 12 0 14
2 19 5 13 2 -7 2 -19 0 -25z m-1259 -825 c-21 -2 -57 -2 -80 0 -24 2 -7 4 37
4 44 0 63 -2 43 -4z m-1678 -2166 c0 -2 -12 -14 -27 -28 l-28 -24 24 28 c23
25 31 32 31 24z m-363 -213 c-3 -3 -12 -4 -19 -1 -8 3 -5 6 6 6 11 1 17 -2 13
-5z"/>
<path d="M16972 10805 c-216 -74 -479 -249 -757 -502 -368 -336 -574 -659
-615 -963 -50 -369 216 -777 565 -865 88 -22 274 -20 398 6 355 71 850 321
1229 620 48 38 89 69 91 69 2 0 -34 -188 -79 -417 -46 -230 -84 -430 -84 -445
0 -67 141 -165 249 -175 91 -8 91 -9 141 277 23 135 64 359 90 497 l48 253 68
117 c93 163 205 342 278 443 81 113 206 242 256 265 l41 18 132 -67 c169 -85
240 -103 351 -88 108 14 228 59 372 139 256 142 424 262 460 328 22 42 9 80
-33 96 -43 16 -87 -2 -198 -81 -175 -124 -381 -230 -482 -246 -33 -5 -44 -2
-71 21 -18 15 -52 55 -76 89 -57 79 -81 100 -141 127 -35 16 -68 22 -117 21
-156 -1 -331 -97 -569 -313 -54 -50 -99 -86 -99 -81 0 5 27 140 60 300 43 212
57 298 51 315 -24 64 -151 142 -247 153 -92 11 -82 39 -201 -556 -118 -594
-100 -544 -236 -661 -268 -230 -754 -490 -1162 -623 -289 -94 -520 -118 -660
-70 -73 25 -141 97 -150 158 -14 92 -1 194 39 303 21 56 43 106 49 111 7 5 53
14 102 21 232 31 579 138 786 242 226 113 398 288 515 524 63 127 89 229 78
312 -21 170 -202 353 -348 353 -28 0 -84 -12 -124 -25z m133 -362 c-63 -152
-241 -357 -398 -460 -92 -60 -428 -195 -445 -178 -11 11 232 241 378 358 74
59 174 135 223 169 90 61 236 148 250 148 4 0 0 -17 -8 -37z"/>
<path d="M10029 6261 c-150 -131 -256 -242 -265 -276 -13 -51 5 -96 58 -144
27 -25 78 -74 112 -108 78 -78 110 -86 192 -49 42 20 87 56 169 136 61 61 119
110 130 110 25 0 105 -62 200 -156 43 -43 91 -87 105 -96 37 -26 89 -22 135 8
67 44 304 285 310 315 9 39 -7 64 -111 176 -50 54 -103 117 -117 140 -14 23
-31 44 -36 48 -20 12 -67 -25 -234 -179 -118 -110 -175 -156 -191 -156 -15 0
-36 14 -56 38 -18 20 -71 77 -117 126 -46 49 -93 106 -103 126 -16 31 -37 50
-55 50 -2 0 -59 -49 -126 -109z"/>
<path d="M12095 5909 c-77 -13 -96 -19 -90 -29 3 -5 0 -7 -8 -4 -18 7 -140
-53 -132 -65 2 -5 -3 -8 -13 -7 -9 0 -16 -4 -15 -10 1 -7 -5 -11 -15 -10 -9 0
-17 -6 -17 -14 -1 -8 -7 -14 -14 -12 -18 4 -62 -38 -54 -51 3 -6 1 -7 -5 -3
-15 9 -64 -42 -55 -57 3 -6 1 -7 -5 -3 -14 8 -88 -84 -147 -184 -72 -123 -124
-242 -185 -429 -222 -673 -224 -1044 -7 -1366 176 -259 393 -338 708 -256 63
17 125 33 138 37 21 6 23 5 16 -12 -16 -38 -46 -198 -40 -213 3 -8 3 -12 -1
-8 -11 10 -85 -184 -78 -203 3 -8 2 -11 -2 -8 -4 4 -44 -68 -89 -160 -46 -92
-102 -195 -124 -230 -23 -35 -39 -68 -35 -73 3 -5 1 -8 -4 -7 -15 4 -74 -81
-66 -94 4 -6 3 -8 -3 -5 -6 4 -29 -17 -51 -46 -23 -28 -70 -81 -106 -116 -36
-36 -62 -69 -59 -75 3 -6 3 -8 -2 -4 -8 8 -121 -80 -118 -92 1 -4 -5 -7 -15
-6 -9 0 -16 -4 -15 -10 1 -6 -3 -11 -10 -11 -16 0 -128 -68 -122 -74 2 -3 -4
-5 -13 -6 -9 -1 -42 -11 -72 -22 -99 -37 -215 -22 -339 45 -25 13 -56 24 -68
24 -26 0 -53 -25 -53 -49 0 -26 58 -103 72 -95 6 4 8 3 4 -4 -14 -24 116 -98
224 -127 98 -26 350 -32 465 -10 263 49 500 175 713 380 266 256 444 559 597
1019 l53 160 49 12 c32 8 133 12 303 12 213 0 274 3 370 20 341 61 515 180
729 500 73 109 107 152 119 150 10 -2 45 -57 85 -133 151 -287 262 -408 462
-507 239 -119 567 -164 900 -123 287 35 616 141 793 255 298 193 552 570 728
1083 77 225 205 691 249 907 7 36 21 99 30 140 20 91 14 131 -25 163 -62 53
-301 93 -456 77 -193 -20 -238 -60 -264 -235 -46 -308 -170 -783 -417 -1585
-89 -291 -220 -429 -474 -500 -102 -28 -294 -59 -414 -66 -251 -15 -415 76
-518 286 -65 134 -72 194 -57 520 13 281 6 407 -31 517 -23 71 -82 144 -139
173 -107 54 -320 42 -454 -27 -43 -22 -115 -92 -141 -137 -13 -23 -40 -97 -60
-166 -20 -69 -45 -145 -55 -170 -10 -25 -35 -88 -55 -140 -82 -206 -246 -502
-336 -604 -19 -22 -66 -61 -105 -86 -217 -142 -525 -172 -703 -69 -27 16 -36
18 -43 7 -7 -9 -8 -7 -3 7 17 46 113 475 145 648 44 239 54 355 54 627 1 240
-1 275 -22 375 -13 60 -37 143 -54 183 -35 85 -105 195 -119 186 -5 -3 -8 0
-7 8 2 7 -3 12 -10 10 -8 -1 -11 2 -8 7 8 13 -83 83 -97 74 -6 -3 -7 -1 -3 5
8 14 -30 36 -46 26 -7 -4 -8 -3 -4 4 8 14 -30 36 -46 26 -6 -4 -8 -3 -5 3 8
13 -20 26 -35 16 -6 -3 -8 -1 -4 5 7 12 -112 61 -209 86 -67 17 -213 37 -260
35 -16 -1 -52 -5 -80 -10z m118 -6 c-13 -2 -33 -2 -45 0 -13 2 -3 4 22 4 25 0
35 -2 23 -4z m-138 -818 c97 -26 173 -72 260 -160 93 -93 148 -188 191 -330
24 -81 26 -104 25 -227 -2 -173 -4 -207 -12 -202 -4 2 -9 -9 -12 -25 -3 -15
-17 -53 -31 -84 -22 -52 -28 -57 -56 -57 -17 0 -56 11 -88 24 -31 13 -109 40
-172 61 -63 21 -137 49 -163 62 -26 13 -53 21 -60 17 -7 -4 -9 -4 -5 1 10 11
-29 38 -42 30 -6 -4 -10 -3 -9 2 2 4 -29 40 -68 79 -54 53 -80 91 -111 155
-59 122 -74 192 -70 319 3 90 7 113 30 160 76 154 223 219 393 175z m782
-1697 c-3 -8 -6 -5 -6 6 -1 11 2 17 5 13 3 -3 4 -12 1 -19z"/>
<path d="M10225 5309 c-99 -10 -157 -32 -189 -69 -28 -33 -71 -203 -106 -415
-25 -146 -88 -410 -127 -530 -63 -195 -162 -337 -308 -440 -136 -96 -162 -100
-340 -51 -146 41 -196 63 -385 176 -320 192 -423 225 -658 218 -124 -5 -159
-9 -221 -31 -171 -60 -229 -159 -218 -377 6 -124 17 -167 53 -216 48 -65 131
-84 504 -114 348 -27 716 -156 1023 -359 248 -164 285 -248 155 -354 -360
-292 -937 -443 -1623 -424 -608 18 -1142 138 -1405 317 -61 42 -155 137 -187
190 -75 124 -84 302 -21 451 11 25 62 75 174 170 344 290 534 475 534 522 0
19 -58 3 -142 -41 -164 -83 -601 -385 -695 -479 -73 -73 -172 -299 -214 -488
-9 -38 -14 -127 -14 -240 0 -172 1 -184 28 -260 16 -43 48 -107 72 -141 164
-230 664 -472 1144 -553 342 -58 789 -53 1271 14 442 62 787 200 1093 438 162
126 228 314 214 615 -8 196 -48 341 -129 469 -44 69 -155 179 -217 214 -22 12
-41 26 -41 31 0 4 19 8 43 8 81 1 332 29 390 45 132 35 224 97 419 283 197
190 320 352 414 552 30 63 61 126 68 140 34 63 166 534 166 592 0 80 -76 116
-290 138 -107 11 -122 11 -235 -1z"/>
<path d="M13864 3001 c-48 -29 -329 -296 -353 -335 -12 -18 -21 -44 -21 -58 0
-40 36 -97 86 -136 26 -20 57 -48 68 -61 70 -82 96 -101 140 -101 56 0 95 27
241 163 73 69 121 107 135 107 13 0 51 -25 89 -58 36 -32 82 -70 102 -85 19
-15 41 -38 49 -52 19 -36 81 -75 119 -75 17 0 45 7 61 15 78 40 314 273 326
322 10 39 -15 79 -118 188 -52 55 -102 114 -111 131 -26 51 -42 59 -76 38 -16
-11 -104 -88 -195 -171 -112 -103 -173 -153 -189 -153 -16 0 -57 38 -147 138
-69 77 -133 153 -142 170 -20 37 -23 38 -64 13z"/>
<path d="M16534 2894 c-39 -27 -203 -168 -300 -258 -29 -27 -63 -68 -75 -91
-21 -40 -22 -46 -9 -84 9 -28 35 -62 79 -104 36 -35 73 -77 82 -93 9 -17 33
-38 54 -48 32 -15 44 -16 76 -7 46 14 219 152 317 254 94 97 95 116 18 210
-30 37 -71 83 -91 104 -20 21 -44 54 -52 73 -16 37 -41 70 -53 70 -4 0 -25
-12 -46 -26z"/>
<path d="M7260 1563 c-34 -22 -198 -172 -286 -260 -91 -90 -105 -127 -75 -188
12 -24 38 -56 59 -71 20 -16 69 -61 108 -101 63 -65 75 -73 108 -73 20 0 50 7
66 15 37 19 172 136 229 198 74 80 88 81 166 7 22 -21 62 -54 89 -74 27 -21
62 -55 77 -76 49 -68 114 -87 176 -52 51 28 177 140 253 225 61 68 70 83 70
117 0 35 -9 49 -93 142 -52 57 -101 109 -110 117 -9 7 -17 19 -17 27 0 7 -11
25 -24 41 -23 26 -25 27 -52 13 -15 -8 -66 -51 -114 -95 -226 -209 -256 -235
-276 -235 -13 0 -48 29 -96 83 -42 45 -95 102 -118 127 -23 25 -48 57 -56 72
-15 29 -41 58 -52 58 -4 0 -19 -8 -32 -17z"/>
</g>
</svg>
